<svg version="1.1" viewBox="0.0 0.0 512.0 512.0" fill="none" stroke="none" stroke-linecap="square" stroke-miterlimit="10" xmlns:xlink="http://www.w3.org/1999/xlink" xmlns="http://www.w3.org/2000/svg"><clipPath id="p.0"><path d="m0 0l512.0 0l0 512.0l-512.0 0l0 -512.0z" clip-rule="nonzero"/></clipPath><g clip-path="url(#p.0)"><path fill="#000000" fill-opacity="0.0" d="m0 0l512.0 0l0 512.0l-512.0 0z" fill-rule="evenodd"/><path fill="#000000" fill-opacity="0.0" d="m5.952756 256.0l124.779526 -249.55894l250.53545 0l124.77951 249.55894l-124.77951 249.55893l-250.53545 0z" fill-rule="evenodd"/><path stroke="#29a000" stroke-width="12.0" stroke-linejoin="round" stroke-linecap="butt" d="m5.952756 256.0l124.779526 -249.55894l250.53545 0l124.77951 249.55894l-124.77951 249.55893l-250.53545 0z" fill-rule="evenodd"/><path fill="#000000" fill-opacity="0.0" d="m398.86615 79.291336l-368.97638 200.03151l83.244095 153.3858l368.97638 -200.03148z" fill-rule="evenodd"/><path fill="#29a000" d="m205.38792 334.19394l-13.461563 7.297882l-78.500916 -52.139313l39.70961 73.16907l-10.164856 5.51062l-44.3901 -81.793335l16.868172 -9.144653l71.63611 47.614014l-36.251404 -66.79697l10.164856 -5.5106354l44.39009 81.79332zm37.80229 -20.49356l-13.131897 7.1191406l-8.496429 -15.655548l13.131897 -7.1191406l8.496429 15.655548zm46.587067 -118.95738q7.9812317 2.7825317 14.968811 9.302963q6.9875793 6.5204163 12.472992 16.627853q5.4854126 10.107437 7.1032715 19.574463q1.6178589 9.467041 -0.38049316 17.446487q-2.0439453 8.288513 -7.4191284 14.828308q-5.3752136 6.5398254 -14.221405 11.335541q-8.626373 4.676605 -17.23706 5.6477966q-8.610687 0.9712219 -16.507141 -1.7861938q-7.896454 -2.7573853 -14.854233 -9.22287q-6.9577637 -6.4654846 -12.472992 -16.627869q-5.4257965 -9.997574 -7.0962524 -19.36499q-1.6704712 -9.367416 0.31384277 -17.765808q1.9136047 -8.004578 7.533722 -14.7482605q5.620117 -6.7436676 14.08168 -11.330902q8.791229 -4.7659454 17.361877 -5.679901q8.570618 -0.9139404 16.352509 1.763382zm16.123077 32.06697q-8.645477 -15.930191 -20.483734 -20.70961q-11.838257 -4.779419 -24.200928 1.922699q-12.472549 6.761688 -14.892563 19.270874q-2.4200134 12.509186 6.225479 28.439392q8.734924 16.094986 20.623444 20.704971q11.88855 4.6099854 24.086365 -2.002777q12.197845 -6.6127625 14.7873535 -19.071655q2.589508 -12.458893 -6.1454163 -28.553894zm97.53223 -30.195847q2.5936584 4.7790527 2.9024048 10.654633q0.30874634 5.87558 -1.9433594 11.291016q-2.4876404 5.8986053 -7.266083 11.048492q-4.778412 5.149872 -13.020203 9.61795q-8.846161 4.7957306 -16.800995 6.9754333q-7.9548035 2.1797028 -17.021423 2.9004211l-7.3933716 -13.623062l0.7692261 -0.4170227q9.011139 1.7976379 18.663422 0.19064331q9.652313 -1.6069794 16.795197 -5.479309q10.109894 -5.48085 13.684753 -12.324326q3.5748596 -6.8434753 0.14648438 -13.160614q-2.951416 -5.4382477 -7.017395 -6.575363q-4.0660095 -1.1371155 -10.280701 0.3835907q-4.7171326 1.1354065 -9.912384 3.0276794q-5.195282 1.8922577 -11.176147 3.7127686q-12.131256 3.5907288 -20.404419 0.859848q-8.273193 -2.730896 -13.132568 -11.684769q-5.574829 -10.272232 -0.45602417 -21.542953q5.118805 -11.270706 18.47049 -18.509003q8.626373 -4.67659 16.718567 -6.9307556q8.092163 -2.2541656 14.953369 -2.8456726l6.976013 12.854019l-0.7692261 0.4170227q-6.816803 -1.423172 -15.842804 0.09309387q-9.02597 1.5162659 -16.993011 5.8354034q-8.736298 4.7361603 -12.070923 11.23613q-3.3345947 6.499954 -0.23416138 12.212845q2.772522 5.108658 6.989929 6.5902557q4.217407 1.4815979 11.7005005 -0.5845642q3.9338684 -1.1373444 11.013641 -3.5535889q7.079773 -2.4162598 12.211334 -3.705246q10.432617 -2.5276642 17.701294 -0.14086914q7.2686768 2.386795 12.038574 11.175873z" fill-rule="nonzero"/></g></svg>